<svg xmlns="http://www.w3.org/2000/svg" width="760" height="540" viewBox="0 0 760 540" role="img" aria-labelledby="title desc">
  <title id="title">Dashboard HD Manager placeholder</title>
  <desc id="desc">Minh họa dashboard quản lý doanh thu, đơn hàng, tồn kho và công nợ.</desc>
  <defs>
    <linearGradient id="panel" x1="0" x2="1" y1="0" y2="1">
      <stop offset="0" stop-color="#ffffff"/>
      <stop offset="1" stop-color="#edf6ff"/>
    </linearGradient>
    <linearGradient id="blue" x1="0" x2="1" y1="0" y2="1">
      <stop offset="0" stop-color="#0f62fe"/>
      <stop offset="1" stop-color="#0f9f8f"/>
    </linearGradient>
    <filter id="shadow" x="-20%" y="-20%" width="140%" height="140%">
      <feDropShadow dx="0" dy="18" stdDeviation="18" flood-color="#102033" flood-opacity=".16"/>
    </filter>
  </defs>
  <rect x="20" y="26" width="720" height="488" rx="22" fill="#dceaff"/>
  <rect x="44" y="52" width="672" height="436" rx="18" fill="url(#panel)" filter="url(#shadow)"/>
  <rect x="44" y="52" width="672" height="64" rx="18" fill="#07192e"/>
  <circle cx="82" cy="84" r="9" fill="#22a06b"/>
  <circle cx="112" cy="84" r="9" fill="#f5a524"/>
  <circle cx="142" cy="84" r="9" fill="#ff6b6b"/>
  <rect x="178" y="74" width="178" height="20" rx="10" fill="#d9e6f8" opacity=".82"/>
  <rect x="586" y="72" width="92" height="24" rx="12" fill="#0f62fe"/>
  <rect x="72" y="146" width="144" height="314" rx="14" fill="#ffffff" stroke="#dce5f2"/>
  <rect x="96" y="174" width="76" height="12" rx="6" fill="#0f62fe"/>
  <rect x="96" y="210" width="88" height="10" rx="5" fill="#b8c8dc"/>
  <rect x="96" y="244" width="74" height="10" rx="5" fill="#b8c8dc"/>
  <rect x="96" y="278" width="94" height="10" rx="5" fill="#b8c8dc"/>
  <rect x="96" y="312" width="66" height="10" rx="5" fill="#b8c8dc"/>
  <rect x="96" y="396" width="84" height="32" rx="8" fill="#e8f1ff"/>
  <rect x="244" y="146" width="134" height="92" rx="14" fill="#ffffff" stroke="#dce5f2"/>
  <rect x="404" y="146" width="134" height="92" rx="14" fill="#ffffff" stroke="#dce5f2"/>
  <rect x="564" y="146" width="124" height="92" rx="14" fill="#ffffff" stroke="#dce5f2"/>
  <rect x="264" y="170" width="52" height="10" rx="5" fill="#7a8aa0"/>
  <rect x="264" y="194" width="82" height="20" rx="10" fill="#0f62fe"/>
  <rect x="424" y="170" width="68" height="10" rx="5" fill="#7a8aa0"/>
  <rect x="424" y="194" width="84" height="20" rx="10" fill="#0f9f8f"/>
  <rect x="584" y="170" width="56" height="10" rx="5" fill="#7a8aa0"/>
  <rect x="584" y="194" width="68" height="20" rx="10" fill="#f5a524"/>
  <rect x="244" y="266" width="292" height="194" rx="14" fill="#ffffff" stroke="#dce5f2"/>
  <rect x="268" y="292" width="98" height="12" rx="6" fill="#102033"/>
  <path d="M270 415h236" stroke="#dce5f2" stroke-width="2"/>
  <path d="M270 372h236" stroke="#dce5f2" stroke-width="2"/>
  <path d="M270 330h236" stroke="#dce5f2" stroke-width="2"/>
  <rect x="286" y="358" width="30" height="57" rx="6" fill="#0f62fe"/>
  <rect x="334" y="338" width="30" height="77" rx="6" fill="#0f9f8f"/>
  <rect x="382" y="376" width="30" height="39" rx="6" fill="#22a06b"/>
  <rect x="430" y="318" width="30" height="97" rx="6" fill="#f5a524"/>
  <rect x="478" y="348" width="30" height="67" rx="6" fill="#0f62fe"/>
  <rect x="564" y="266" width="124" height="194" rx="14" fill="#ffffff" stroke="#dce5f2"/>
  <circle cx="626" cy="346" r="44" fill="none" stroke="#dce5f2" stroke-width="14"/>
  <path d="M626 302a44 44 0 0 1 41 60" fill="none" stroke="url(#blue)" stroke-width="14" stroke-linecap="round"/>
  <rect x="590" y="420" width="72" height="12" rx="6" fill="#b8c8dc"/>
</svg>
